<svg xmlns="http://www.w3.org/2000/svg" viewBox="0 0 64 64" role="img" aria-label="Gamer520">
  <defs>
    <linearGradient id="gamer520-bg" x1="0%" y1="0%" x2="100%" y2="100%">
      <stop offset="0%" stop-color="#21364d"/>
      <stop offset="100%" stop-color="#101a2a"/>
    </linearGradient>
  </defs>
  <rect width="64" height="64" rx="16" fill="url(#gamer520-bg)"/>
  <path d="M18 27c0-6.1 4.7-11 11.3-11 3.6 0 6.6 1.1 9 3.4l-3.4 3.6c-1.4-1.4-3.1-2.1-5.4-2.1-3.9 0-6.8 2.9-6.8 6.9s2.8 6.9 7.1 6.9c1.7 0 3.2-.3 4.3-1v-3h-5.2v-4.6H39V36c-2.6 2.2-6.1 3.4-9.7 3.4C22.7 39.4 18 34.3 18 27Z" fill="#f7f3eb"/>
  <text x="45" y="46" font-size="12" font-family="Arial, sans-serif" font-weight="700" text-anchor="middle" fill="#66d1ff">520</text>
</svg>
